<svg width="62" height="65" viewBox="0 0 62 65" fill="none" xmlns="http://www.w3.org/2000/svg">
<path d="M0.53125 0.350525H61.1223V30.6461V48.9828L53.5484 56.5567L45.9745 64.1306H30.8268H0.53125V0.350525Z" fill="#202429"/>
<path d="M35.084 28.5L35.2842 28.7002C36.8397 30.2557 37.6175 31.0335 37.6175 32C37.6175 32.9665 36.8397 33.7443 35.2842 35.2998L35.084 35.5" stroke="url(#paint0_linear_416_14017)" stroke-width="1.5" stroke-linecap="round"/>
<path d="M32.5098 26.3654L31 32L29.4902 37.6346" stroke="url(#paint1_linear_416_14017)" stroke-width="1.5" stroke-linecap="round"/>
<path d="M26.9163 28.5L26.7161 28.7002C25.1606 30.2557 24.3828 31.0335 24.3828 32C24.3828 32.9665 25.1606 33.7443 26.7161 35.2998L26.9163 35.5" stroke="url(#paint2_linear_416_14017)" stroke-width="1.5" stroke-linecap="round"/>
<path d="M19.334 32C19.334 26.5003 19.334 23.7504 21.0425 22.0419C22.7511 20.3333 25.5009 20.3333 31.0007 20.3333C36.5004 20.3333 39.2502 20.3333 40.9588 22.0419C42.6673 23.7504 42.6673 26.5003 42.6673 32C42.6673 37.4997 42.6673 40.2496 40.9588 41.9581C39.2502 43.6667 36.5004 43.6667 31.0007 43.6667C25.5009 43.6667 22.7511 43.6667 21.0425 41.9581C19.334 40.2496 19.334 37.4997 19.334 32Z" stroke="url(#paint3_linear_416_14017)" stroke-width="1.5"/>
<defs>
<linearGradient id="paint0_linear_416_14017" x1="37.7747" y1="27.1" x2="33.1979" y2="27.9388" gradientUnits="userSpaceOnUse">
<stop stop-color="#FFC39B"/>
<stop offset="1" stop-color="#FF894F"/>
</linearGradient>
<linearGradient id="paint1_linear_416_14017" x1="34.1396" y1="24.3865" x2="32.3184" y2="23.9822" gradientUnits="userSpaceOnUse">
<stop stop-color="#FFC39B"/>
<stop offset="1" stop-color="#FF894F"/>
</linearGradient>
<linearGradient id="paint2_linear_416_14017" x1="27.0736" y1="27.1" x2="22.4967" y2="27.9388" gradientUnits="userSpaceOnUse">
<stop stop-color="#FFC39B"/>
<stop offset="1" stop-color="#FF894F"/>
</linearGradient>
<linearGradient id="paint3_linear_416_14017" x1="44.1156" y1="15.6667" x2="9.43857" y2="33.2256" gradientUnits="userSpaceOnUse">
<stop stop-color="#FFC39B"/>
<stop offset="1" stop-color="#FF894F"/>
</linearGradient>
</defs>
</svg>
