<svg width="51" height="51" viewBox="0 0 51 51" fill="none" xmlns="http://www.w3.org/2000/svg">
<circle cx="25.5" cy="25.5" r="25" transform="rotate(90 25.5 25.5)" fill="#202429" stroke="#35373E"/>
<path d="M29.5 22L29.6716 22.1716C31.0049 23.5049 31.6716 24.1716 31.6716 25C31.6716 25.8284 31.0049 26.4951 29.6716 27.8284L29.5 28" stroke="#F7F7F7" stroke-width="1.5" stroke-linecap="round"/>
<path d="M27.2949 20.1704L26.0008 25L24.7067 29.8296" stroke="#F7F7F7" stroke-width="1.5" stroke-linecap="round"/>
<path d="M22.4997 22L22.3281 22.1716C20.9948 23.5049 20.3281 24.1716 20.3281 25C20.3281 25.8284 20.9948 26.4951 22.3281 27.8284L22.4997 28" stroke="#F7F7F7" stroke-width="1.5" stroke-linecap="round"/>
<path d="M16 25C16 20.286 16 17.9289 17.4645 16.4645C18.9289 15 21.286 15 26 15C30.714 15 33.0711 15 34.5355 16.4645C36 17.9289 36 20.286 36 25C36 29.714 36 32.0711 34.5355 33.5355C33.0711 35 30.714 35 26 35C21.286 35 18.9289 35 17.4645 33.5355C16 32.0711 16 29.714 16 25Z" stroke="#F7F7F7" stroke-width="1.5"/>
</svg>
