<svg width="90" height="90" viewBox="0 0 90 90" fill="none" xmlns="http://www.w3.org/2000/svg">
<circle cx="45" cy="45" r="44.5" transform="rotate(90 45 45)" fill="#202429" stroke="#35373E"/>
<path d="M41.3526 20.5874C40.6113 20.7727 40.3889 21.0693 40.3147 22.1442C40.2035 23.3303 40.0553 23.5156 38.9433 23.701C36.2004 24.2199 32.3455 26.5921 29.4914 29.4462C24.9694 34.0053 23.1531 38.7127 23.3755 45.2364C23.5238 49.9067 25.1176 54.0952 28.1941 57.8389C29.3432 59.2845 29.3432 59.3215 28.676 60.0258C28.3053 60.4335 28.0088 60.8783 28.0088 60.9895C28.0088 61.4714 31.3077 64.3254 31.8637 64.3254C32.1231 64.3254 32.642 63.8807 32.9756 63.3617L33.6058 62.4351L35.1625 63.3247C37.1271 64.4737 39.0916 65.1038 41.5009 65.4004C43.243 65.6228 43.4283 65.6969 43.799 66.9201L44.2437 68.2174L46.5789 68.1062C47.8762 68.0321 48.9882 67.9209 49.0994 67.8097C49.2106 67.7355 49.2477 67.0683 49.2106 66.4012C49.1365 65.215 49.1735 65.1409 50.8786 64.6961C51.8794 64.4737 53.7327 63.6953 55.0671 62.9911C57.4393 61.7308 60.627 59.1362 60.627 58.4319C60.627 58.2466 59.8115 57.3941 58.7737 56.5416C56.7721 54.8736 56.8462 54.8736 54.474 56.801C50.0261 60.3964 43.3171 61.1007 37.7201 58.5802C35.1255 57.3941 31.6042 53.8357 30.381 51.204C26.4149 42.5306 30.4551 32.6339 39.314 29.2609C43.2059 27.7782 49.6183 28.5196 53.0284 30.8176C53.7697 31.2995 54.5481 31.7072 54.7705 31.7072C55.3636 31.7072 57.9953 28.6307 58.0324 27.9265C58.0324 26.7404 52.4724 23.9604 48.9512 23.3674C45.8747 22.8855 45.8376 22.8484 45.5781 21.514C45.3557 20.2909 45.2816 20.2538 43.799 20.2909C42.9835 20.3279 41.8715 20.4391 41.3526 20.5874Z" fill="white"/>
<path d="M39.9039 31.0755C37.1239 32.0763 33.5656 35.0416 32.3794 37.3768C28.5246 44.9753 31.3045 53.3893 38.9772 57.133C40.9046 58.0967 41.5718 58.2079 44.6854 58.2079C47.9472 58.2079 48.392 58.1338 50.7272 56.9477C55.8794 54.3531 58.7705 49.7198 58.7705 44.0857C58.7705 41.0093 58.3257 40.4162 56.4724 40.7127C55.8052 40.8239 53.433 41.0463 51.172 41.1575C45.575 41.4911 45.7974 41.3799 45.7974 43.7522C45.7974 46.9398 45.7232 46.8657 49.7264 46.6433C52.0986 46.495 53.2106 46.5321 53.2106 46.8286C53.2106 48.6078 50.1712 51.7955 47.7248 52.648C45.3526 53.4264 43.3139 53.3523 41.127 52.3144C38.8289 51.2395 37.0498 49.2009 36.3455 46.7545C35.6413 44.4193 35.6413 43.7151 36.3826 41.417C37.0868 39.2301 39.3108 36.932 41.5348 36.0424C44.4259 34.9675 48.6885 35.7829 50.5789 37.7845C51.3944 38.637 51.765 38.7482 54.1743 38.7482C55.657 38.7482 56.9914 38.6 57.1026 38.3776C57.8068 37.2285 53.6183 32.9288 50.3194 31.4462C47.243 30.0377 43.1286 29.8894 39.9039 31.0755Z" fill="white"/>
</svg>
