<svg
            xmlns="http://www.w3.org/2000/svg"
            width="25"
            height="25"
            viewBox="0 0 25 25"
            fill="none"
          >
            <path
              fill-rule="evenodd"
              clip-rule="evenodd"
              d="M5.75 9.80277V8.5C5.75 4.77208 8.77208 1.75 12.5 1.75C16.2279 1.75 19.25 4.77208 19.25 8.5V9.80277C19.4768 9.81872 19.6906 9.83948 19.8918 9.86652C20.7919 9.98754 21.5497 10.2464 22.1517 10.8483C22.7536 11.4503 23.0125 12.2081 23.1335 13.1082C23.25 13.9752 23.25 15.0775 23.25 16.4451V16.5549C23.25 17.9225 23.25 19.0248 23.1335 19.8918C23.0125 20.7919 22.7536 21.5497 22.1517 22.1516C21.5497 22.7536 20.7919 23.0125 19.8918 23.1335C19.0248 23.25 17.9225 23.25 16.5549 23.25H8.44513C7.07754 23.25 5.97522 23.25 5.10825 23.1335C4.20814 23.0125 3.45027 22.7536 2.84835 22.1516C2.24643 21.5497 1.98754 20.7919 1.86652 19.8918C1.74996 19.0248 1.74998 17.9225 1.75 16.5549V16.4451C1.74998 15.0775 1.74996 13.9752 1.86652 13.1082C1.98754 12.2081 2.24643 11.4503 2.84835 10.8483C3.45027 10.2464 4.20814 9.98754 5.10825 9.86652C5.30938 9.83948 5.52317 9.81872 5.75 9.80277ZM7.25 8.5C7.25 5.60051 9.60051 3.25 12.5 3.25C15.3995 3.25 17.75 5.60051 17.75 8.5V9.75344C17.3765 9.74999 16.9784 9.74999 16.5549 9.75H8.44513C8.02161 9.74999 7.62353 9.74999 7.25 9.75344V8.5ZM3.90901 11.909C4.18577 11.6322 4.57435 11.4518 5.30812 11.3531C6.06347 11.2516 7.06459 11.25 8.5 11.25H16.5C17.9354 11.25 18.9365 11.2516 19.6919 11.3531C20.4257 11.4518 20.8142 11.6322 21.091 11.909C21.3678 12.1858 21.5482 12.5743 21.6469 13.3081C21.7484 14.0635 21.75 15.0646 21.75 16.5C21.75 17.9354 21.7484 18.9365 21.6469 19.6919C21.5482 20.4257 21.3678 20.8142 21.091 21.091C20.8142 21.3678 20.4257 21.5482 19.6919 21.6469C18.9365 21.7484 17.9354 21.75 16.5 21.75H8.5C7.06459 21.75 6.06347 21.7484 5.30812 21.6469C4.57435 21.5482 4.18577 21.3678 3.90901 21.091C3.63225 20.8142 3.4518 20.4257 3.35315 19.6919C3.25159 18.9365 3.25 17.9354 3.25 16.5C3.25 15.0646 3.25159 14.0635 3.35315 13.3081C3.4518 12.5743 3.63225 12.1858 3.90901 11.909Z"
              fill="#F7F7F7"
            />
          </svg>