<svg xmlns="http://www.w3.org/2000/svg" width="3" height="14" viewBox="0 0 3 14" fill="none">
  <path d="M2.16667 1.45833C2.16667 1.84954 1.84954 2.16667 1.45833 2.16667C1.06713 2.16667 0.75 1.84954 0.75 1.45833C0.75 1.06713 1.06713 0.75 1.45833 0.75C1.84954 0.75 2.16667 1.06713 2.16667 1.45833ZM2.16667 6.70833C2.16667 7.09954 1.84954 7.41667 1.45833 7.41667C1.06713 7.41667 0.75 7.09954 0.75 6.70833C0.75 6.31713 1.06713 6 1.45833 6C1.84953 6 2.16667 6.31713 2.16667 6.70833Z" fill="#CDCECF" stroke="#CDCECF" stroke-width="1.5"/>
  <path d="M2.16667 11.9583C2.16667 12.3495 1.84953 12.6667 1.45833 12.6667C1.06713 12.6667 0.75 12.3495 0.75 11.9583C0.75 11.5671 1.06713 11.25 1.45833 11.25C1.84953 11.25 2.16667 11.5671 2.16667 11.9583Z" fill="#CDCECF" stroke="#CDCECF" stroke-width="1.5"/>
</svg>