<svg xmlns="http://www.w3.org/2000/svg" width="14" height="14" viewBox="0 0 14 14" fill="none">
  <path d="M13.9325 4.8774C13.8905 4.75387 13.8133 4.64533 13.7104 4.56517C13.6075 4.48501 13.4833 4.43675 13.3532 4.42634L9.54875 4.12408L7.90243 0.480258C7.85 0.362897 7.76472 0.263217 7.65688 0.193247C7.54904 0.123277 7.42325 0.0860081 7.2947 0.0859376C7.16615 0.0858671 7.04032 0.122998 6.9324 0.19285C6.82449 0.262701 6.7391 0.362288 6.68654 0.47959L5.04022 4.12408L1.23573 4.42634C1.1079 4.43647 0.985703 4.4832 0.883745 4.56095C0.781787 4.6387 0.70439 4.74417 0.660813 4.86474C0.617236 4.98532 0.609325 5.1159 0.638025 5.24085C0.666725 5.36581 0.730822 5.47985 0.822647 5.56933L3.63414 8.30971L2.63981 12.6148C2.60961 12.7451 2.61929 12.8815 2.66758 13.0062C2.71587 13.131 2.80054 13.2383 2.91061 13.3143C3.02068 13.3904 3.15107 13.4316 3.28484 13.4326C3.41862 13.4336 3.54962 13.3944 3.66083 13.3201L7.29448 10.898L10.9281 13.3201C11.0418 13.3955 11.1759 13.4344 11.3123 13.4314C11.4487 13.4284 11.5809 13.3837 11.6912 13.3033C11.8014 13.2229 11.8844 13.1107 11.929 12.9818C11.9736 12.8529 11.9776 12.7134 11.9405 12.5821L10.7199 8.31171L13.747 5.58802C13.9452 5.4092 14.0179 5.13029 13.9325 4.8774Z" fill="#FFD519"/>
</svg>